<mxfile host="app.diagrams.net" modified="2023-01-28T06:56:57.496Z" agent="5.0 (Windows NT 10.0; Win64; x64) AppleWebKit/537.36 (KHTML, like Gecko) Chrome/109.0.0.0 Safari/537.36" etag="QFR5m2INgiG7UKS08YkQ" version="20.8.13" type="github">
  <diagram id="prtHgNgQTEPvFCAcTncT" name="Page-1">
    <mxGraphModel dx="1154" dy="527" grid="1" gridSize="10" guides="1" tooltips="1" connect="1" arrows="1" fold="1" page="1" pageScale="1" pageWidth="827" pageHeight="1169" math="0" shadow="0">
      <root>
        <mxCell id="0" />
        <mxCell id="1" parent="0" />
        <mxCell id="5K4GqOeyXQ_Hfmsa3VyL-5" value="Pool" style="swimlane;childLayout=stackLayout;resizeParent=1;resizeParentMax=0;startSize=20;horizontal=0;horizontalStack=1;" vertex="1" parent="1">
          <mxGeometry x="80" y="40" width="570" height="1080" as="geometry" />
        </mxCell>
        <mxCell id="5K4GqOeyXQ_Hfmsa3VyL-6" value="ERP调拨单" style="swimlane;startSize=20;" vertex="1" parent="5K4GqOeyXQ_Hfmsa3VyL-5">
          <mxGeometry x="20" width="120" height="1080" as="geometry" />
        </mxCell>
        <mxCell id="5K4GqOeyXQ_Hfmsa3VyL-12" value="新增/修改" style="strokeWidth=2;html=1;shape=mxgraph.flowchart.start_1;whiteSpace=wrap;" vertex="1" parent="5K4GqOeyXQ_Hfmsa3VyL-6">
          <mxGeometry x="10" y="80" width="100" height="60" as="geometry" />
        </mxCell>
        <mxCell id="5K4GqOeyXQ_Hfmsa3VyL-7" value="ERP退货单" style="swimlane;startSize=20;" vertex="1" parent="5K4GqOeyXQ_Hfmsa3VyL-5">
          <mxGeometry x="140" width="120" height="1080" as="geometry" />
        </mxCell>
        <mxCell id="5K4GqOeyXQ_Hfmsa3VyL-13" value="新增/修改" style="strokeWidth=2;html=1;shape=mxgraph.flowchart.start_1;whiteSpace=wrap;" vertex="1" parent="5K4GqOeyXQ_Hfmsa3VyL-7">
          <mxGeometry x="10" y="80" width="100" height="60" as="geometry" />
        </mxCell>
        <mxCell id="5K4GqOeyXQ_Hfmsa3VyL-8" value="坏货" style="swimlane;startSize=20;" vertex="1" parent="5K4GqOeyXQ_Hfmsa3VyL-5">
          <mxGeometry x="260" width="120" height="1080" as="geometry" />
        </mxCell>
        <mxCell id="5K4GqOeyXQ_Hfmsa3VyL-14" value="新增/修改" style="strokeWidth=2;html=1;shape=mxgraph.flowchart.start_1;whiteSpace=wrap;" vertex="1" parent="5K4GqOeyXQ_Hfmsa3VyL-8">
          <mxGeometry x="10" y="80" width="100" height="60" as="geometry" />
        </mxCell>
        <mxCell id="5K4GqOeyXQ_Hfmsa3VyL-9" value="ERP到货分摊信息表" style="swimlane;startSize=20;" vertex="1" parent="5K4GqOeyXQ_Hfmsa3VyL-5">
          <mxGeometry x="380" width="190" height="1080" as="geometry" />
        </mxCell>
        <UserObject label="表头-到货单信息" treeRoot="1" id="5K4GqOeyXQ_Hfmsa3VyL-15">
          <mxCell style="whiteSpace=wrap;html=1;align=center;treeFolding=1;treeMoving=1;newEdgeStyle={&quot;edgeStyle&quot;:&quot;elbowEdgeStyle&quot;,&quot;startArrow&quot;:&quot;none&quot;,&quot;endArrow&quot;:&quot;none&quot;};" vertex="1" parent="5K4GqOeyXQ_Hfmsa3VyL-9">
            <mxGeometry x="20" y="200" width="120" height="60" as="geometry" />
          </mxCell>
        </UserObject>
        <UserObject label="明细-业务单信息" treeRoot="1" id="5K4GqOeyXQ_Hfmsa3VyL-16">
          <mxCell style="whiteSpace=wrap;html=1;align=center;treeFolding=1;treeMoving=1;newEdgeStyle={&quot;edgeStyle&quot;:&quot;elbowEdgeStyle&quot;,&quot;startArrow&quot;:&quot;none&quot;,&quot;endArrow&quot;:&quot;none&quot;};" vertex="1" parent="5K4GqOeyXQ_Hfmsa3VyL-9">
            <mxGeometry x="20" y="260" width="120" height="60" as="geometry" />
          </mxCell>
        </UserObject>
        <UserObject label="溯源-原始到货单信息" treeRoot="1" id="5K4GqOeyXQ_Hfmsa3VyL-17">
          <mxCell style="whiteSpace=wrap;html=1;align=center;treeFolding=1;treeMoving=1;newEdgeStyle={&quot;edgeStyle&quot;:&quot;elbowEdgeStyle&quot;,&quot;startArrow&quot;:&quot;none&quot;,&quot;endArrow&quot;:&quot;none&quot;};" vertex="1" parent="5K4GqOeyXQ_Hfmsa3VyL-9">
            <mxGeometry x="20" y="360" width="120" height="60" as="geometry" />
          </mxCell>
        </UserObject>
        <mxCell id="5K4GqOeyXQ_Hfmsa3VyL-18" style="edgeStyle=orthogonalEdgeStyle;rounded=0;orthogonalLoop=1;jettySize=auto;html=1;exitX=0.5;exitY=1;exitDx=0;exitDy=0;exitPerimeter=0;entryX=0;entryY=0;entryDx=0;entryDy=0;" edge="1" parent="5K4GqOeyXQ_Hfmsa3VyL-5" source="5K4GqOeyXQ_Hfmsa3VyL-14" target="5K4GqOeyXQ_Hfmsa3VyL-16">
          <mxGeometry relative="1" as="geometry">
            <Array as="points">
              <mxPoint x="320" y="260" />
            </Array>
          </mxGeometry>
        </mxCell>
        <mxCell id="5K4GqOeyXQ_Hfmsa3VyL-19" style="edgeStyle=orthogonalEdgeStyle;rounded=0;orthogonalLoop=1;jettySize=auto;html=1;exitX=0.5;exitY=1;exitDx=0;exitDy=0;exitPerimeter=0;entryX=0;entryY=0;entryDx=0;entryDy=0;" edge="1" parent="5K4GqOeyXQ_Hfmsa3VyL-5" source="5K4GqOeyXQ_Hfmsa3VyL-13" target="5K4GqOeyXQ_Hfmsa3VyL-16">
          <mxGeometry relative="1" as="geometry">
            <Array as="points">
              <mxPoint x="200" y="260" />
            </Array>
          </mxGeometry>
        </mxCell>
        <mxCell id="5K4GqOeyXQ_Hfmsa3VyL-20" style="edgeStyle=orthogonalEdgeStyle;rounded=0;orthogonalLoop=1;jettySize=auto;html=1;exitX=0.5;exitY=1;exitDx=0;exitDy=0;exitPerimeter=0;entryX=0;entryY=0;entryDx=0;entryDy=0;" edge="1" parent="5K4GqOeyXQ_Hfmsa3VyL-5" source="5K4GqOeyXQ_Hfmsa3VyL-12" target="5K4GqOeyXQ_Hfmsa3VyL-16">
          <mxGeometry relative="1" as="geometry">
            <Array as="points">
              <mxPoint x="80" y="260" />
            </Array>
          </mxGeometry>
        </mxCell>
        <mxCell id="5K4GqOeyXQ_Hfmsa3VyL-21" style="edgeStyle=orthogonalEdgeStyle;rounded=0;orthogonalLoop=1;jettySize=auto;html=1;exitX=0.5;exitY=1;exitDx=0;exitDy=0;exitPerimeter=0;entryX=0;entryY=0.5;entryDx=0;entryDy=0;" edge="1" parent="5K4GqOeyXQ_Hfmsa3VyL-5" source="5K4GqOeyXQ_Hfmsa3VyL-12" target="5K4GqOeyXQ_Hfmsa3VyL-17">
          <mxGeometry relative="1" as="geometry" />
        </mxCell>
      </root>
    </mxGraphModel>
  </diagram>
</mxfile>
